<?xml version="1.0" ?><!DOCTYPE svg  PUBLIC '-//W3C//DTD SVG 1.1//EN'  'http://www.w3.org/Graphics/SVG/1.1/DTD/svg11.dtd'><svg height="512px" style="enable-background:new 0 0 512 512;" version="1.1" viewBox="0 0 512 512" width="512px" xml:space="preserve" xmlns="http://www.w3.org/2000/svg" xmlns:xlink="http://www.w3.org/1999/xlink"><g id="_x39_9-blogger"><g><g><g><path d="M482.436,201.867c-10.082-4.302-53.303,0.482-65.287-10.371      c-8.471-7.84-9.012-22.018-12.318-40.918c-5.551-31.669-7.844-38.846-13.6-51.318c-20.969-44.439-71.197-82.51-116.83-82.51      h-105.79c-83.212,0-151.214,68.1-151.214,151.237v176.325c0,82.989,68.002,150.938,151.214,150.938h173.795      c83.207,0,150.764-67.948,151.24-150.938l0.957-122.11C494.604,222.202,494.604,207.105,482.436,201.867L482.436,201.867z       M170.519,140.355h83.87c15.988,0,28.957,12.947,28.957,28.767c0,15.854-12.969,28.922-28.957,28.922h-83.87      c-15.989,0-28.96-13.102-28.96-28.922C141.559,153.275,154.53,140.355,170.519,140.355L170.519,140.355z M340.971,370.866      H170.519c-15.989,0-28.96-13.096-28.96-28.767c0-15.821,12.971-28.771,28.96-28.771h170.452      c15.838,0,28.814,12.949,28.814,28.771C369.785,357.771,356.809,370.866,340.971,370.866L340.971,370.866z M340.971,370.866" style="fill:#FF7043;"/></g></g></g></g><g id="Layer_1"/></svg>